HIERARCHY
ROOT Hips
{
     OFFSET -37.98070 93.99780 -82.41100
     CHANNELS 6 Xposition Yposition Zposition Zrotation Xrotation Yrotation
     JOINT Spine
     {
          OFFSET -0.00000 11.89050 -0.00000
          CHANNELS 3 Zrotation Xrotation Yrotation
          JOINT Spine1
          {
               OFFSET 0.00000 25.65740 0.12766
               CHANNELS 3 Zrotation Xrotation Yrotation
               JOINT HEad
               {
                    OFFSET 0.00000 8.73416 0.01134
                    CHANNELS 3 Zrotation Xrotation Yrotation
                    End Site
                    {
                         OFFSET -0.29000 12.77420 2.51395
                    }
               }
               JOINT LeftShoulder1
               {
                    OFFSET 8.99000 -0.36225 -0.22000
                    CHANNELS 3 Zrotation Xrotation Yrotation
                    JOINT LeftArm
                    {
                         OFFSET 10.28270 -0.00338 0.32212
                         CHANNELS 3 Zrotation Xrotation Yrotation
                         JOINT LeftForeArm
                         {
                              OFFSET 32.76690 0.09914 -1.42434
                              CHANNELS 3 Zrotation Xrotation Yrotation
                              JOINT LeftHand
                              {
                                   OFFSET 27.56430 0.08536 1.02216
                                   CHANNELS 3 Zrotation Xrotation Yrotation
                                   End Site
                                   {
                                        OFFSET 16.74430 -0.60000 1.50291
                                   }
                              }
                         }
                    }
               }
               JOINT RightShoulder
               {
                    OFFSET -8.99000 -0.36225 -0.22000
                    CHANNELS 3 Zrotation Xrotation Yrotation
                    JOINT RightArm
                    {
                         OFFSET -10.28270 -0.00338 0.32212
                         CHANNELS 3 Zrotation Xrotation Yrotation
                         JOINT RightForeArm
                         {
                              OFFSET -32.89710 0.09914 -1.42434
                              CHANNELS 3 Zrotation Xrotation Yrotation
                              JOINT RightHand
                              {
                                   OFFSET -27.49210 0.08536 1.02216
                                   CHANNELS 3 Zrotation Xrotation Yrotation
                                   End Site
                                   {
                                        OFFSET -16.63120 -0.60000 1.50291
                                   }
                              }
                         }
                    }
               }
          }
     }
     JOINT LeftUpLeg
     {
          OFFSET 8.94580 -8.66707 0.10165
          CHANNELS 3 Zrotation Xrotation Yrotation
          JOINT LeftLeg
          {
               OFFSET -0.00000 -44.42270 1.37270
               CHANNELS 3 Zrotation Xrotation Yrotation
               JOINT LeftFoot
               {
                    OFFSET -0.25355 -42.09240 -1.46059
                    CHANNELS 3 Zrotation Xrotation Yrotation
                    JOINT LeftToes
                    {
                         OFFSET -0.04000 -4.41509 8.49910
                         CHANNELS 3 Zrotation Xrotation Yrotation
                         End Site
                         {
                              OFFSET 0.08000 -0.04745 9.77979
                         }
                    }
               }
          }
     }
     JOINT RightUpLeg
     {
          OFFSET -8.94580 -8.66707 0.10165
          CHANNELS 3 Zrotation Xrotation Yrotation
          JOINT RightLeg
          {
               OFFSET 0.00000 -44.42270 1.37270
               CHANNELS 3 Zrotation Xrotation Yrotation
               JOINT RightFoot
               {
                    OFFSET 0.25355 -42.09240 -1.46059
                    CHANNELS 3 Zrotation Xrotation Yrotation
                    JOINT RightToes
                    {
                         OFFSET 0.04000 -4.41509 8.49910
                         CHANNELS 3 Zrotation Xrotation Yrotation
                         End Site
                         {
                              OFFSET -0.08000 -0.13745 9.77979
                         }
                    }
               }
          }
     }
}
MOTION
Frames: 10
Frame Time: 0.01667
76.76210 92.62740 -12.72130 -11.11430 6.62919 -102.09900 -11.58300 14.56730 3.51978 -23.93700 27.91860 10.48010 9.76831 -11.82360 12.98690 -0.00000 -0.00000 0.00000 -117.24600 -40.68130 -86.15900 -85.04390 49.56310 -38.92470 14.62080 6.61370 -22.41050 12.90820 1.47547 6.68048 91.73140 -15.70410 59.07310 18.55930 37.79060 98.01730 11.73900 11.62730 11.66330 25.95960 -9.10853 -18.40250 -19.28790 2.05825 48.24260 -7.10453 17.59620 1.43897 8.12790 -13.21520 -62.63410 -28.27940 26.16710 19.22290 42.81790 4.74432 -41.19900 -21.42100 5.69292 2.43852 0.04620 0.00053 0.66264 
76.69250 92.89180 -12.25610 -10.92110 6.74979 -103.13600 -11.06280 14.55010 3.39186 -22.92710 27.98430 10.06850 9.65728 -11.71940 12.74440 -0.00000 -0.00000 0.00000 -117.03400 -42.44890 -86.44330 -84.61210 50.17540 -39.72440 14.58990 6.66401 -22.07420 12.65960 1.46909 6.76050 91.53080 -14.48390 59.82690 18.54000 37.60060 97.71430 11.56780 11.64240 12.02460 25.90920 -8.79820 -18.88190 -19.26900 1.79706 48.99260 -7.33365 17.16690 1.46454 8.44943 -12.02320 -61.74140 -28.74590 25.35040 19.18500 42.94100 4.83179 -40.76840 -20.64020 5.02686 2.21974 0.04620 0.00053 0.66264 
76.67960 93.12100 -11.80840 -10.83840 6.83966 -104.29500 -10.53110 14.53940 3.26674 -21.84490 28.06150 9.63646 9.32711 -11.50640 12.52620 -0.00000 -0.00000 0.00000 -116.81400 -44.36250 -86.68390 -84.04780 50.90230 -40.69430 14.50230 6.72485 -21.75720 12.51330 1.47465 6.86882 91.13990 -13.24100 60.57270 18.42050 37.31980 97.36600 11.40100 11.65230 12.34170 25.88120 -8.41617 -19.26400 -19.33430 1.60293 49.74950 -7.62821 16.83770 1.50838 8.74148 -10.87970 -60.93160 -29.29940 24.60130 19.22550 43.01910 4.77051 -39.82020 -19.76530 4.25359 1.98105 0.04620 0.00053 0.66264 
76.73510 93.29150 -11.39070 -10.86540 6.90807 -105.53900 -10.00820 14.54060 3.14437 -20.72310 28.15540 9.19567 8.82247 -11.17050 12.30130 -0.00000 -0.00000 0.00000 -116.63300 -46.38680 -86.88360 -83.40760 51.65710 -41.71130 14.37290 6.79171 -21.46440 12.48840 1.49229 6.99555 90.55770 -11.99070 61.31180 18.23370 36.95880 96.93570 11.28310 11.66020 12.57860 25.87590 -8.01439 -19.56200 -19.48690 1.53571 50.51280 -7.99729 16.56830 1.57007 9.00063 -9.81411 -60.21650 -29.88270 23.90490 19.32600 43.05300 4.58825 -38.47540 -18.87270 3.49214 1.75490 0.04620 0.00053 0.66264 
76.85800 93.38820 -11.01010 -10.99310 6.95952 -106.84400 -9.51356 14.55600 3.03340 -19.58240 28.26750 8.75567 8.18477 -10.72310 12.03890 -0.00000 -0.00000 0.00000 -116.50500 -48.46470 -87.02260 -82.80050 52.31270 -42.60740 14.22180 6.85824 -21.20800 12.56180 1.51582 7.10994 89.82500 -10.73560 62.03140 18.02950 36.54540 96.39750 11.24150 11.67000 12.73010 25.88930 -7.61390 -19.83830 -19.72960 1.59356 51.31900 -8.42352 16.28610 1.64114 9.22651 -8.83356 -59.57140 -30.46090 23.24220 19.48110 43.05860 4.32131 -36.99650 -18.05330 2.87040 1.57080 0.04620 0.00053 0.66264 
77.04130 93.39970 -10.67030 -11.21080 7.00313 -108.19000 -9.05291 14.58640 2.93692 -18.42880 28.39850 8.32168 7.43206 -10.19600 11.72240 -0.00000 -0.00000 0.00000 -116.42300 -50.53950 -87.06640 -82.37180 52.73330 -43.19720 14.07360 6.91504 -21.01970 12.66790 1.53488 7.17783 89.01980 -9.47018 62.71250 17.83630 36.11250 95.75460 11.28830 11.68540 12.81020 25.91670 -7.22119 -20.14500 -20.05910 1.76408 52.19790 -8.86417 15.91520 1.70683 9.40996 -7.96982 -58.97030 -31.00140 22.57980 19.66580 43.06790 4.07712 -35.76190 -17.40730 2.44624 1.44262 0.04620 0.00053 0.66264 
77.26810 93.32890 -10.37000 -11.50980 7.06415 -109.55800 -8.59528 14.62990 2.84387 -17.26010 28.55020 7.89541 6.55623 -9.62732 11.35580 -0.00000 -0.00000 0.00000 -116.36700 -52.57260 -86.97980 -82.24900 52.81750 -43.33860 13.95290 6.95173 -20.94210 12.73000 1.54048 7.18171 88.07210 -8.04307 63.27970 17.53300 35.45680 95.16500 11.47490 11.71350 12.81320 25.97170 -6.79662 -20.50210 -20.46550 1.97961 53.16600 -9.22016 15.42320 1.74358 9.52740 -7.32095 -58.42640 -31.47670 21.92990 19.84820 43.10750 3.93561 -35.12450 -17.06130 2.20926 1.37449 0.04620 0.00053 0.66264 
77.51590 93.18830 -10.10510 -11.89110 7.17081 -110.92900 -8.10251 14.68580 2.74157 -16.07460 28.72690 7.47679 5.53933 -9.05229 10.96700 -0.00000 -0.00000 0.00000 -116.31800 -54.54850 -86.74290 -82.48310 52.53090 -42.99180 13.87290 6.96231 -21.00420 12.70420 1.53014 7.12890 87.03170 -6.47921 63.72750 17.11280 34.61000 94.67150 11.78610 11.75300 12.74940 26.07140 -6.27189 -20.90820 -20.93930 2.14789 54.24970 -9.36318 14.82950 1.72763 9.54788 -7.04370 -58.00650 -31.87720 21.33790 19.99710 43.18430 3.95984 -35.28210 -17.12620 2.07348 1.35900 0.04620 0.00053 0.66264 
77.76780 92.98990 -9.87095 -12.35700 7.34758 -112.28700 -7.54976 14.75660 2.62102 -14.87490 28.93680 7.06498 4.37669 -8.50601 10.60250 -0.00000 -0.00000 0.00000 -116.27200 -56.46450 -86.36360 -83.02160 51.92000 -42.24220 13.82700 6.94937 -21.19870 12.60700 1.50889 7.04229 86.05350 -4.96820 64.10980 16.70500 33.83950 94.18900 12.14750 11.79440 12.63990 26.23080 -5.60540 -21.35910 -21.47840 2.21402 55.49480 -9.19903 14.18660 1.64785 9.44835 -7.28473 -57.80600 -32.19790 20.83980 20.07710 43.27900 4.22538 -36.20500 -17.63980 1.90306 1.37632 0.04620 0.00053 0.66264 
78.02380 92.73540 -9.66288 -12.90260 7.62660 -113.59100 -6.90488 14.84650 2.45885 -13.66590 29.19200 6.65610 3.09040 -8.03097 10.31500 -0.00000 -0.00000 0.00000 -116.24500 -58.31840 -85.88010 -83.73790 51.10140 -41.26170 13.79360 6.92312 -21.48180 12.51350 1.48628 6.94392 85.08410 -3.54104 64.43510 16.34190 33.15450 93.74690 12.54590 11.83430 12.47710 26.47240 -4.83318 -21.85520 -22.08850 2.22112 56.93010 -8.72514 13.55230 1.51320 9.22515 -8.09496 -57.90110 -32.40790 20.44600 20.05020 43.35660 4.81785 -37.66060 -18.54010 1.57669 1.39840 0.04620 0.00053 0.66264 
